<svg xmlns="http://www.w3.org/2000/svg" viewBox="0 0 27.86 30"><title>icono_propuesta</title><g id="Capa_2" data-name="Capa 2"><g id="Capa_1-2" data-name="Capa 1"><path d="M24.14,11.12l3.25-1.87a.94.94,0,1,0-.94-1.62L23.2,9.5a.94.94,0,0,0,.94,1.62Z"/><path d="M20.36,6.66l1.88-3.24a.94.94,0,0,0-1.62-.94L18.74,5.73A.94.94,0,0,0,19.08,7,.93.93,0,0,0,20.36,6.66Z"/><path d="M14.87,4.69V.94A.94.94,0,1,0,13,.94V4.69a.94.94,0,0,0,1.88,0Z"/><path d="M8.77,7a.94.94,0,0,0,.34-1.28L7.24,2.48a.94.94,0,0,0-1.62.94L7.49,6.66A.94.94,0,0,0,8.77,7Z"/><path d="M5,10.78A.94.94,0,0,0,4.65,9.5L1.41,7.63A.94.94,0,0,0,.47,9.25l3.25,1.87A.94.94,0,0,0,5,10.78Z"/><path d="M13.24,7.53A8.49,8.49,0,0,0,5.72,14a8.36,8.36,0,0,0,3.52,8.93v2.34a1,1,0,0,0,1,1h7.38a1,1,0,0,0,1-1V22.91A8.41,8.41,0,0,0,13.24,7.53Zm4,14a1,1,0,0,0-.5.84v2H14.87v-4.3l1.6-1.6a.92.92,0,0,0,0-1.32.94.94,0,0,0-1.33,0l-1.21,1.21-1.21-1.21a.94.94,0,1,0-1.33,1.32l1.6,1.6v4.3H11.12v-2a1,1,0,0,0-.51-.84,6.47,6.47,0,0,1-3.24-5.44,6.78,6.78,0,0,1,6.49-6.75,6.58,6.58,0,0,1,6.63,6.57A6.45,6.45,0,0,1,17.24,21.56Z"/><rect x="9.93" y="27" width="8" height="3" rx="1"/></g></g></svg>