<svg xmlns="http://www.w3.org/2000/svg" viewBox="0 0 744.5 499.49"><defs><style>.cls-1{fill:#dcf2e7;}.cls-2,.cls-3{fill:#fff;}.cls-3{stroke:#3f3d56;stroke-miterlimit:10;}.cls-4{opacity:0.1;isolation:isolate;}.cls-5{fill:#3f1121;}.cls-6{fill:#f2f2f2;}.cls-7{fill:#a0616a;}.cls-8{fill:#fdf0ef;}.cls-9{fill:#605d82;}.cls-10{fill:#535070;}.cls-11{fill:#3f3d56;}.cls-12{fill:#57b894;}</style></defs><title>iconomailbox2</title><g id="Capa_2" data-name="Capa 2"><g id="Capa_1-2" data-name="Capa 1"><path id="Trazado_240" data-name="Trazado 240" class="cls-1" d="M85,401.68a44.82,44.82,0,0,1,25.23-4.78c14.47,1.58,27.83,10.42,35.54,22.77,8.52,13.64,10.16,30.33,11.58,46.35,2.58-8.31,12.28-13.38,20.78-11.55s15.06,9.78,16.12,18.41c1.26,10.26-4.67,20.84-13.62,25.92A143.49,143.49,0,0,1,88.8,476.57c-9-5.85-17.57-13-22.23-22.7-6.32-13.12-4.11-29.73,4.91-41.15A41.52,41.52,0,0,1,85,401.68Z"/><path id="Trazado_241" data-name="Trazado 241" class="cls-2" d="M85.8,401.63a236.77,236.77,0,0,1,69.56,94.05c.66,1.63-2,2.34-2.64.73a234.32,234.32,0,0,0-68.85-92.86C82.5,402.45,84.45,400.53,85.8,401.63Z"/><path id="Trazado_242" data-name="Trazado 242" class="cls-1" d="M722.47,401.69a44.78,44.78,0,0,0-25.24-4.79c-14.47,1.58-27.83,10.42-35.54,22.77C653.17,433.31,651.54,450,650.11,466c-2.58-8.31-12.28-13.38-20.78-11.55s-15.06,9.78-16.12,18.41c-1.26,10.26,4.67,20.84,13.62,25.92a143.49,143.49,0,0,0,91.83-22.23c9-5.85,17.57-13,22.23-22.7,6.33-13.12,4.12-29.73-4.91-41.15A41.45,41.45,0,0,0,722.47,401.69Z"/><path id="Trazado_243" data-name="Trazado 243" class="cls-2" d="M737.94,401.63c-37.86,25-67.36,57.37-85.81,94.05-.82,1.63,2.44,2.34,3.25.73,18.29-36.22,47.5-68.15,84.94-92.86,1.68-1.11-.71-3-2.38-1.93Z"/><path class="cls-1" d="M265.43,285.42l-7.12-1.23-2-.39A58.45,58.45,0,0,0,219,176.06l9.33,22.21L206.17,179l-.15,0a58.46,58.46,0,0,0-35.71,74.55h0c.37,1.05.81,2.06,1.23,3.08a70,70,0,0,1-17.11-11.47c-9.88-9.47-15.3-22.54-21.35-38.64-12-31.92-23.54-64.29-34.62-96.74A58.42,58.42,0,0,0,125.77,39c-.59-1.69-1.28-3.31-2-4.91-.18-.39-.36-.79-.56-1.18-.74-1.53-1.52-3-2.38-4.47-.14-.24-.29-.46-.44-.69-.75-1.21-1.53-2.39-2.36-3.53-.31-.43-.62-.86-.94-1.28-.94-1.22-1.91-2.42-2.94-3.56-.34-.38-.7-.74-1.06-1.11-.78-.83-1.59-1.64-2.43-2.42-.43-.41-.87-.83-1.32-1.22-.11-.11-.22-.22-.34-.32v0A58.41,58.41,0,0,0,34.25,12.7L46.39,41.59,24.53,22.52a58.12,58.12,0,0,0-2.16,68.83l-.06,0c.24.35.51.67.76,1,.46.65.93,1.28,1.41,1.9.62.8,1.27,1.58,1.93,2.34.49.57,1,1.15,1.5,1.71.76.81,1.55,1.57,2.35,2.34.47.44.91.91,1.39,1.34q1.89,1.68,3.9,3.19c.47.35,1,.67,1.45,1,.94.67,1.89,1.32,2.87,1.93.61.37,1.23.71,1.85,1.07.9.51,1.8,1,2.73,1.47.65.33,1.31.64,2,.94.94.43,1.9.83,2.87,1.21.65.26,1.3.52,2,.75,1.09.38,2.19.72,3.31,1,.56.16,1.11.34,1.67.49,1.67.42,3.36.78,5.06,1.06.32,0,.65.07,1,.12,1.41.2,2.83.37,4.27.47.61,0,1.23,0,1.85.08,1.16,0,2.32.06,3.48,0q1,0,2-.09c1.14-.06,2.27-.16,3.41-.3.67-.07,1.34-.15,2-.25,1.22-.19,2.44-.43,3.65-.69l.24,0q7,20.53,14.3,41A58.41,58.41,0,0,0,15,160.86c-.76.84-1.5,1.71-2.21,2.6L33,185.81,5.67,174.89a58.3,58.3,0,0,0-2.34,44.49,57.59,57.59,0,0,0,7.43,14.36,58.43,58.43,0,0,0,105.57-25.63c.51,1.37,1,2.76,1.52,4.14,5.34,14.2,12,31.89,25.33,44.67,9,8.66,20.18,14.16,30.85,18.81q10.44,4.53,21.14,8.39a58.65,58.65,0,0,0,26.16,8.34c11.26,3.13,22.67,5.74,34.18,7.75l7.18,1.24c6.45,1.11,13.06,2.24,19.62,3.55-.94.29-1.89.55-2.83.88a58.48,58.48,0,0,0-39,56.89l45,13.81L244.73,383a58.48,58.48,0,0,0,97.44,17.3c-.42,1.38-.83,2.76-1.25,4.14-.82,2.75-1.64,5.47-2.43,8.18-10.72,36.81-6.11,65.78,13,81.54l10.36-12.54c-18.58-15.35-12.81-47-7.73-64.46q1.17-4,2.4-8c7-23.18,14.89-49.46,4.64-73.61C345.7,299.16,301.19,291.54,265.43,285.42Z"/><path class="cls-3" d="M275,498.92H590.29a39,39,0,0,0,39-39h0V315.49a15.47,15.47,0,0,0-4.81-11.21L457.38,145.91a36,36,0,0,0-49.47,0l-159.3,151A40.37,40.37,0,0,0,236,326.21V459.94a39,39,0,0,0,39,39Z"/><path class="cls-4" d="M629.27,317.86h-390V475.38a23.53,23.53,0,0,0,23.54,23.54H605.74a23.53,23.53,0,0,0,23.54-23.54h0V317.86h0Z"/><rect class="cls-5" x="288.04" y="193.74" width="290.03" height="290.03" rx="21.45"/><polygon class="cls-4" points="288.04 324.38 288.04 483.77 578.07 483.77 578.07 324.38 433.06 394.47 288.04 324.38"/><path class="cls-3" d="M433.06,403.48l185.8-89.81a7.54,7.54,0,0,1,10.07,3.51,7.44,7.44,0,0,1,.75,3.28V475a23.53,23.53,0,0,1-23.54,23.54H260A23.54,23.54,0,0,1,236.43,475h0V323.1a9.21,9.21,0,0,1,13.2-8.28Z"/><rect class="cls-6" x="471.97" y="220.37" width="81.11" height="11.47" rx="5.73"/><rect class="cls-6" x="318.77" y="262.15" width="240.87" height="6.55" rx="3.28"/><rect class="cls-6" x="318.77" y="284.27" width="240.87" height="6.55" rx="3.28"/><rect class="cls-6" x="318.77" y="306.39" width="240.87" height="6.55" rx="3.28"/><path class="cls-7" d="M237,133.34c.5,4.39,3.84,7.92,5.08,12.16,1.87,6.38-1.36,13.22-5.77,18.19A40.32,40.32,0,0,1,208.29,177a12,12,0,0,1-4.64-.5,9.92,9.92,0,0,1-3.52-2.41c-3.33-3.34-5.11-8-5.82-12.62a66.53,66.53,0,0,1-.16-14.11,7.89,7.89,0,0,1,.52-2.84,7.25,7.25,0,0,1,1.83-2.25,42.42,42.42,0,0,1,7.86-5.71,8.93,8.93,0,0,0,3.29-2.52,8.27,8.27,0,0,0,1-3l.87-4.43a8.65,8.65,0,0,1,1.27-3.58c1.53-2.07,4.47-2.35,7-2.45l9.43-.37c2.93-.12,6.79-1,9.65-.38,2.68.53,1.79,3,1.3,5.24A38.66,38.66,0,0,0,237,133.34Z"/><path class="cls-8" d="M237,133.34c.5,4.39,3.84,7.92,5.08,12.16,1.87,6.38-1.36,13.22-5.77,18.19A40.32,40.32,0,0,1,208.29,177a12,12,0,0,1-4.64-.5,9.92,9.92,0,0,1-3.52-2.41c-3.33-3.34-5.11-8-5.82-12.62a66.53,66.53,0,0,1-.16-14.11,7.89,7.89,0,0,1,.52-2.84,7.25,7.25,0,0,1,1.83-2.25,42.42,42.42,0,0,1,7.86-5.71,8.93,8.93,0,0,0,3.29-2.52,8.27,8.27,0,0,0,1-3l.87-4.43a8.65,8.65,0,0,1,1.27-3.58c1.53-2.07,4.47-2.35,7-2.45l9.43-.37c2.93-.12,6.79-1,9.65-.38,2.68.53,1.79,3,1.3,5.24A38.66,38.66,0,0,0,237,133.34Z"/><path class="cls-9" d="M177.07,330.8q2,22,4,43.92c1,11.52,2.11,23.09,4.16,34.46.71,3.92,1.54,7.81,2.52,11.68,2.74,10.73,6.71,21.22,8,32.22.05.31.08.64.11,1a28.53,28.53,0,0,0,1.37,7.15c.64,1.68,1.63,3.21,2.32,4.87,1.38,3.32,1.57,7,1.74,10.58a45.79,45.79,0,0,1,15.7-5.37c2.67-.39,5.64-.68,7.45-2.67,2-2.19,1.79-5.56,1.45-8.51q-1.59-13.77-3.17-27.51a71.13,71.13,0,0,0-2-11.68c-.37-1.28-.81-2.53-1.25-3.78-.62-1.73-1.24-3.46-1.7-5.23a62.69,62.69,0,0,1-1.4-8.71c-1.09-9.23-2.4-18.43-3.54-27.65l-.07-.49c-1.72-14-3-28-2.65-42.09q.09-3.12.28-6.26c.19-3,.47-4.63-2-6.53-2.78-2.09-6.42-3.55-9.59-4.92-1.71-.74-20.5-7.41-20.94-5.95a36.6,36.6,0,0,0-1.37,9.59A105.52,105.52,0,0,0,177.07,330.8Z"/><path class="cls-4" d="M185.24,409.18c.71,3.92,1.54,7.81,2.52,11.68,2.74,10.73,6.71,21.22,8,32.22.05.31.08.64.11,1,8.38-12,15.43-24.83,23.61-36.92-.62-1.73-1.24-3.46-1.7-5.23a62.69,62.69,0,0,1-1.4-8.71c-1.09-9.22-2.4-18.43-3.54-27.65l-.07-.49a28.73,28.73,0,0,1-2,5.68c-5.49,11.15-18.53,16.79-24.91,27.47Q185.51,408.68,185.24,409.18Z"/><path class="cls-9" d="M253.21,311.08c-.27,8.95-1.71,17.82-3.14,26.66L247.12,356c-1.61,10-3.29,20.16-8,29.1-3.53,6.68-8.62,12.39-13.23,18.38-11.32,14.75-19.82,31.45-30.55,46.63-3.12,4.41-7.58,9.18-12.91,8.26-3.49-.6-6-3.51-8.77-5.75-3.24-2.65-7.15-4.58-9.69-7.9s-3.05-8.82.4-11.18a18.34,18.34,0,0,1,3.95-1.62c5.35-2,8.82-7.26,11-12.54s3.54-11,6.48-15.88c6.38-10.68,19.42-16.32,24.91-27.48,3.08-6.25,3.37-13.45,3.61-20.41l.6-17.75a13.15,13.15,0,0,0-.67-5.73c-2.11-4.73-8.45-5.17-13.58-5.77A46.26,46.26,0,0,1,184,321.08c-3-1.59-5.85-3.63-7.43-6.6-1.45-2.7-1.65-5.88-1.81-8.94L173,273.38c-.16-2.77-.3-5.63.68-8.22,2.45-6.52,10.67-8.65,17.63-8.34,12.93.58,24.88,6.15,37.07,9.91a93.94,93.94,0,0,0,9.19,2.39c2.74.55,6,.32,8.66,1.2,4.65,1.57,4.53,11.72,5.19,15.94A134,134,0,0,1,253.21,311.08Z"/><path class="cls-10" d="M184.18,459.69a8.26,8.26,0,0,0-1.81,4.43,151.35,151.35,0,0,0-2.56,26.78,4.35,4.35,0,0,1-.48,2.43,3,3,0,0,1-1.26,1c-3.3,1.58-7.13-.61-9.87-3-5.1-4.46-9.41-10.45-9.7-17.22a38,38,0,0,0-.18-5.22c-.45-2.54-1.93-4.76-3.24-7a58.81,58.81,0,0,1-5.36-12c-.51-1.58-.84-3.56.4-4.66a4.43,4.43,0,0,1,1.46-.76l14.9-5.53c1.29-.48,4.5,7.77,5,8.67,1.25,2.21,2.49,3.46,5,4s5.59-.23,8,1C188.48,454.76,186.46,457.39,184.18,459.69Z"/><path class="cls-10" d="M207,463.43a4.48,4.48,0,0,1,1.13-1.43,5,5,0,0,1,2.29-.78c2.83-.48,6.19-.8,8.15,1.31s1.52,5.19,3.05,7.41c.49.7,1.15,1.28,1.57,2a7.71,7.71,0,0,1,.68,3.63c.08,3.44.16,6.88-.08,10.31-.2,2.88-.68,5.89-2.48,8.14-2.88,3.61-8.08,4.13-12.7,4.37l-3.74.19a7.42,7.42,0,0,1-3.07-.28,5,5,0,0,1-2.64-2.91c-1.95-4.84,1.13-10.05,3-14.91C204.41,474.91,204,468.71,207,463.43Z"/><path class="cls-11" d="M238.12,108.62a3.22,3.22,0,0,0-.21-1.44c-.55-1-2-.7-3.06-.43-4.34,1.09-8.91.1-13.38.36s-9.5,2.49-10.4,6.87a32.73,32.73,0,0,1-8.25-8.47c-1.24-1.86-2.32-4-2.15-6.21.24-3.21,2.94-5.61,5.43-7.65l7.43-6.07a11.4,11.4,0,0,1,3.33-2.11c1.72-.59,3.59-.31,5.4-.31,5.42,0,11.19-2.46,16,0a17.18,17.18,0,0,1,5,4.53l6.63,7.85a4.12,4.12,0,0,1,1.06,1.8,8,8,0,0,1-.47,2.87c-.31,1.75.44,3.62-.14,5.31-1,2.8-4.36,3.19-6.44,4.79-.77.6-2,2.63-2.9,2.6C239.31,112.89,238.16,109.92,238.12,108.62Z"/><circle class="cls-8" cx="226.86" cy="110.53" r="21.25"/><path class="cls-11" d="M222.24,155.57c2.84-5.5,12.83-4.61,14.52-10.57.54-1.91.47-4.69,2.43-5a3.6,3.6,0,0,1,1.81.35l28.35,10.88a5.39,5.39,0,0,1,2.6,1.63,5.25,5.25,0,0,1,.55,3.55c-1.45,15.29-8.56,29.38-13,44.1-6,19.9-7,41.41-2,61.58.6,2.4,1.28,4.9.76,7.32-1.43,6.62-9.21,4-13.76,3.29l-20.73-3.26q-20.72-3.27-41.42-6.61c-3.58-.58-8-2-8.43-5.56-.36-2.93,2.24-5.26,3.61-7.86,2.77-5.26.48-11.59-.76-17.4-3.27-15.24,1.18-31.1-.21-46.62-1-10.77-4.71-21.06-7.49-31.51-.77-2.92-1.31-6.47.85-8.58a8.83,8.83,0,0,1,3.44-1.78l26.5-9.05a4.48,4.48,0,0,1,2.3-.35c1.57.31,2.29,2.09,2.87,3.59A32.57,32.57,0,0,0,222.24,155.57Z"/><path class="cls-8" d="M306.21,179.61a32.78,32.78,0,0,0,5,2.15c3.18.9,8.55,2,11.11,4.17s-6,9.57-7.57,12.5c-2.65,5-8.37.54-11.6-.87l-15-6.49c-2.54-1.1-5.28-2.39-6.47-4.88a1.09,1.09,0,0,1-.15-.77,1.33,1.33,0,0,1,.61-.65,33.48,33.48,0,0,0,8.73-8.22c.61-.84,1.37-2.81,2.24-3.31C296.33,171.41,303.47,178.31,306.21,179.61Z"/><path class="cls-8" d="M145.87,175.5l-5.52,6.31c-1.19,1.35-2.37,2.71-3.46,4.15a48.5,48.5,0,0,0-6.32,11.92c-1.2,3.15-2.2,6.51-1.78,9.85a24,24,0,0,0,1.38,5,62.72,62.72,0,0,0,3.75,9,52.45,52.45,0,0,0,4.23,6.33,149.11,149.11,0,0,0,14,16c1.89,1.87,2.68,4.89,3.51,7.42,1.51,4.66,5.12,8.29,8.61,11.73a23.89,23.89,0,0,0,3.7,3.18,12.06,12.06,0,0,0,6.73,1.92,7.35,7.35,0,0,0,3-.63c2.39-1.13,3.6-3.89,3.85-6.52a13.88,13.88,0,0,0-1.16-7c-3.17-7-11.31-10.06-17.06-15.18-3.38-3-6-6.78-8.5-10.52a36,36,0,0,1-4.3-7.53c-1.29-3.43-.79-7.49-1.91-11-.47-1.47-1.32-2.8-1.83-4.26a5,5,0,0,1,.26-4.46,6.49,6.49,0,0,1,2.5-1.83c3.67-1.87,7.79-4.27,8.49-8.33a8.91,8.91,0,0,0-1.64-6.36,26.7,26.7,0,0,0-4.64-4.86C150.18,178.52,147.48,176.92,145.87,175.5Z"/><path class="cls-8" d="M309.61,189.64c1-2,2.2-4,4.17-5a7.7,7.7,0,0,1,6.05,0,22.65,22.65,0,0,1,5.31,3.21l4.76,3.51a18.37,18.37,0,0,1,4.3,6.65,19.53,19.53,0,0,1,.75,10c-.76,5.37-4,10.06-7.56,14.15-2.22,2.55-5,5.13-8.36,5.24a5.53,5.53,0,0,1-3.7-1.86c-1.43-1.74-1.19-4.11-.94-5.84,1.42-9.73,5.21-12.86,3.71-15.76-1.78-3.43-8.11-1.1-10.17-5C306.43,196.1,308.37,192.15,309.61,189.64Z"/><path class="cls-11" d="M239.23,101.94a3,3,0,0,0-.21-1.44c-.55-1-2-.71-3.06-.44-4.34,1.1-8.91.11-13.38.36s-9.5,2.49-10.39,6.88a32.61,32.61,0,0,1-8.25-8.48c-1.24-1.86-2.32-4-2.16-6.21C202,89.4,204.72,87,207.21,85l7.44-6.07A11.17,11.17,0,0,1,218,76.78c1.71-.58,3.58-.3,5.4-.3,5.41,0,11.18-2.46,16,0a17.33,17.33,0,0,1,5,4.53L251,88.88a4.25,4.25,0,0,1,1.06,1.79,7.8,7.8,0,0,1-.48,2.87c-.31,1.76.45,3.63-.14,5.31-1,2.8-4.36,3.2-6.43,4.8-.78.6-2,2.62-2.91,2.6C240.43,106.2,239.28,103.23,239.23,101.94Z"/><path class="cls-11" d="M284.32,160.17a22.9,22.9,0,0,1,1.69,2.26,35,35,0,0,0,3.44,5.1c1.53,1.62,3.55,2.68,5.29,4.08a2.47,2.47,0,0,1,.9,1.13,2.74,2.74,0,0,1-.6,2.12q-2.62,4.17-5.28,8.32c-1.35,2.12-3.08,6.47-5.48,7.25s-6.73-.49-9.08-1a46.31,46.31,0,0,1-9.68-3.11,8.67,8.67,0,0,1-3.26-2.18,7.6,7.6,0,0,1-1.42-4.26,25.41,25.41,0,0,1,3-13.21c2.06-4.09,1.81-7.31,4.57-11,.47-.62,2.24-3.2,3-3.5,1-.44,3.95,1.43,5,1.89A23,23,0,0,1,284.32,160.17Z"/><path class="cls-11" d="M162,152.15a23.86,23.86,0,0,0-5.07,4.44c-1.53,2-2.4,4.4-3.87,6.43s-3.38,3.48-5,5.28a41.19,41.19,0,0,0-5.76,9.39,141.3,141.3,0,0,0,13,14.73,4.32,4.32,0,0,0,2,1.3,3.21,3.21,0,0,0,2.8-1.14c.73-.77,1.24-1.7,1.93-2.49a9.94,9.94,0,0,1,6.16-3,41.73,41.73,0,0,1,7-.1,2.73,2.73,0,0,0,1.49-.25,2.41,2.41,0,0,0,.81-.93c2.73-4.64,1.86-10.47.89-15.77l-2.21-12.15a27.4,27.4,0,0,0-1.83-6.76c-.84-1.79-2.71-4.82-5-4.28S164,150.75,162,152.15Z"/><ellipse class="cls-2" cx="432.65" cy="198.31" rx="33.59" ry="33.65"/><path class="cls-12" d="M432.65,158.92a40.15,40.15,0,1,0,40.14,40.15A40.14,40.14,0,0,0,432.65,158.92Zm-8.25,61.55-17.68-17.69a4.07,4.07,0,0,1,0-5.77h0a4.09,4.09,0,0,1,5.77,0l9.05,9.05a4.07,4.07,0,0,0,5.77,0l25.52-25.51a4.07,4.07,0,0,1,5.77,0h0a4.08,4.08,0,0,1,0,5.77L424.4,220.47Z"/></g></g></svg>