<svg xmlns="http://www.w3.org/2000/svg" viewBox="0 0 30 30"><title>icono_logout-</title><g id="Capa_2" data-name="Capa 2"><g id="Capa_1-2" data-name="Capa 1"><path d="M11.25,18.75A1.25,1.25,0,0,1,12.5,20v7.5h15V2.5h-15V10A1.25,1.25,0,0,1,10,10V1.25A1.25,1.25,0,0,1,11.25,0h17.5A1.25,1.25,0,0,1,30,1.25v27.5A1.25,1.25,0,0,1,28.75,30H11.25A1.25,1.25,0,0,1,10,28.75V20A1.25,1.25,0,0,1,11.25,18.75Z"/><path d="M.28,15.79l0,0,0-.06,0,0,0-.05,0-.06s0,0,0,0l0-.06a.14.14,0,0,0,0-.06.43.43,0,0,0,0,0,.64.64,0,0,1,0-.07.13.13,0,0,0,0-.06v-.06a1,1,0,0,1,0-.24v-.06a.13.13,0,0,0,0-.06.64.64,0,0,1,0-.07s0,0,0,0a.14.14,0,0,0,0-.06l0-.06s0,0,0,0l0-.06,0-.05,0,0,0-.06,0,0,.08-.09h0l5-5a1.24,1.24,0,0,1,1.76,1.76L4.27,13.75H18a1.25,1.25,0,0,1,0,2.5H4.27l2.86,2.87a1.24,1.24,0,1,1-1.76,1.76l-5-5h0Z"/></g></g></svg>