<svg xmlns="http://www.w3.org/2000/svg" viewBox="0 0 30 30"><title>icono_reporte_ciudadano</title><g id="Capa_2" data-name="Capa 2"><g id="Capa_1-2" data-name="Capa 1"><path d="M29.61,25.25,17.31,1.52A2.66,2.66,0,0,0,15,0a2.66,2.66,0,0,0-2.31,1.52L.39,25.25a3.58,3.58,0,0,0,0,3.16A2.65,2.65,0,0,0,2.69,30H27.31a2.65,2.65,0,0,0,2.34-1.59A3.58,3.58,0,0,0,29.61,25.25Zm-1.66,2a.73.73,0,0,1-.64.44H2.69a.73.73,0,0,1-.64-.44,1,1,0,0,1,0-.87L14.36,2.69a.7.7,0,0,1,1.28,0l12.3,23.73A1,1,0,0,1,28,27.29Z"/><path d="M15,9.34c-.86,0-1.54.47-1.54,1.29,0,2.51.3,6.11.3,8.62,0,.65.57.93,1.24.93.51,0,1.22-.28,1.22-.93,0-2.51.3-6.11.3-8.62A1.36,1.36,0,0,0,15,9.34Z"/><path d="M15,21.63a1.63,1.63,0,0,0,0,3.25,1.63,1.63,0,0,0,0-3.25Z"/></g></g></svg>