<svg xmlns="http://www.w3.org/2000/svg" viewBox="0 0 414 354.4"><defs><style>.cls-1{fill:#dcf2e7;}.cls-2{fill:#fff;}.cls-3{fill:#f2f2f2;}.cls-4{fill:#2f0d19;}.cls-5{fill:#3f3d56;}.cls-6{fill:#400d09;}.cls-7{fill:#e6e6e6;}.cls-8{fill:#d9cfce;}</style></defs><title>iconomailbox</title><g id="Capa_2" data-name="Capa 2"><g id="Capa_1-2" data-name="Capa 1"><g id="Grupo_325" data-name="Grupo 325"><path id="Trazado_240" data-name="Trazado 240" class="cls-1" d="M121.67,350.69c6.64-5.61,10.68-14.48,9.62-23.12s-7.62-16.57-16.12-18.41S97,312.4,94.39,320.71c-1.43-16-3.06-32.7-11.58-46.35C75.1,262,61.74,253.17,47.27,251.59S17.55,256,8.52,267.41s-11.24,28-4.91,41.15c4.65,9.66,13.24,16.85,22.23,22.7A143.45,143.45,0,0,0,124,352.73"/><path id="Trazado_241" data-name="Trazado 241" class="cls-2" d="M22.84,256.32a236.81,236.81,0,0,1,69.55,94.05c.67,1.63-2,2.34-2.63.73A234.24,234.24,0,0,0,20.9,258.25C19.54,257.14,21.48,255.22,22.84,256.32Z"/><path id="Trazado_242" data-name="Trazado 242" class="cls-1" d="M126.26,350.69c-6.65-5.61-10.69-14.48-9.63-23.12s7.62-16.57,16.12-18.41,18.2,3.24,20.79,11.55c1.42-16,3.06-32.7,11.57-46.35,7.72-12.35,21.07-21.19,35.55-22.77s29.71,4.39,38.74,15.82,11.24,28,4.92,41.15c-4.66,9.66-13.24,16.85-22.23,22.7A143.48,143.48,0,0,1,124,352.73"/><path id="Trazado_243" data-name="Trazado 243" class="cls-2" d="M241.36,256.32c-37.86,25-67.36,57.37-85.81,94.05-.82,1.63,2.44,2.34,3.25.73,18.29-36.22,47.5-68.15,84.94-92.85,1.69-1.11-.71-3-2.38-1.93Z"/><circle id="Elipse_5" data-name="Elipse 5" class="cls-3" cx="145.98" cy="137.16" r="22.26"/><path id="Trazado_244" data-name="Trazado 244" class="cls-3" d="M77.34,60.42H230.72v8.39H96.92A59.91,59.91,0,0,0,37,128.72v95.34H20.23a2.8,2.8,0,0,1-2.8-2.8V120.33A59.91,59.91,0,0,1,77.34,60.42Z"/><path id="Trazado_245" data-name="Trazado 245" class="cls-4" d="M106.84,351.17V223.7h37.34V351.17A3.23,3.23,0,0,1,141,354.4H110.07A3.24,3.24,0,0,1,106.84,351.17Z"/><path id="Trazado_246" data-name="Trazado 246" class="cls-5" d="M9.53,221.18V117.53A62.3,62.3,0,0,1,71.77,55.3H230V224.77H13.12a3.6,3.6,0,0,1-3.59-3.59Zm219-164.45H71.77A60.88,60.88,0,0,0,11,117.53V221.18a2.16,2.16,0,0,0,2.15,2.16H228.56Z"/><path id="Trazado_247" data-name="Trazado 247" class="cls-6" d="M146,148.65a12.94,12.94,0,0,1-12.93-12.93V43.09a2.16,2.16,0,0,0-2.15-2.16H80.63A3.59,3.59,0,0,1,77,37.34V3.59A3.59,3.59,0,0,1,80.63,0h74.68a3.59,3.59,0,0,1,3.59,3.59V135.73A12.94,12.94,0,0,1,146,148.65Z"/><path id="Trazado_248" data-name="Trazado 248" class="cls-4" d="M235.74,53.86h0a40.85,40.85,0,0,1,40.94,40.76v118h80.43a12.18,12.18,0,0,1,12.2,12.16H194.81V94.62A40.84,40.84,0,0,1,235.74,53.86Z"/><path id="Trazado_249" data-name="Trazado 249" class="cls-2" d="M225.92,121.05l8.48,35,165.8-40.14-8.47-35a2.61,2.61,0,0,0-1.7-1.86,2.58,2.58,0,0,0-1-.15L293.23,29.28a2.65,2.65,0,0,0-3.34.8L243.7,94.5l-17.41,24.29a.35.35,0,0,0-.07.3,2.64,2.64,0,0,0-.3,2Z"/><path id="Trazado_250" data-name="Trazado 250" class="cls-5" d="M226.22,119.09a.34.34,0,0,0,.15.22.38.38,0,0,0,.31.07.41.41,0,0,0,.21-.15l.06-.09.91-1.26,16.47-23,46.17-64.4a1.89,1.89,0,0,1,2.39-.57L388,79.19l.85.44.11,0,.19,0a.34.34,0,0,0,.21-.18.36.36,0,0,0-.16-.5h0l-.11-.07L293.23,29.28a2.64,2.64,0,0,0-3.34.8L243.7,94.5l-17.41,24.29A.35.35,0,0,0,226.22,119.09Z"/><path id="Trazado_251" data-name="Trazado 251" class="cls-7" d="M276,122.66l3.69.41,27.39,3,18.16,2,1.07.12L349,110.53l.87-.68,5.35-4.18,19-14.87.11-1,6.78-61.12a3.21,3.21,0,0,0-2.83-3.53l-90.38-10a3.19,3.19,0,0,0-3.52,2.82L279.63,61,277,84.94l-2.37,21.38-1.1,9.93-.32,2.88a3.21,3.21,0,0,0,2.82,3.53Z"/><path id="Trazado_252" data-name="Trazado 252" class="cls-2" d="M300.85,69.08,340,73.42,353.89,75a4.7,4.7,0,1,0,1.39-9.29l-.36,0-17.27-1.91-35.76-4a4.7,4.7,0,0,0-1,9.34Z"/><path id="Trazado_253" data-name="Trazado 253" class="cls-2" d="M298.62,86.4l.3,0,45.45,5,7.59.84a4.7,4.7,0,1,0,1.31-9.3L353,83l-11-1.22-36-4L300,77.11a4.7,4.7,0,0,0-1.34,9.29Z"/><path id="Trazado_254" data-name="Trazado 254" class="cls-2" d="M293.48,101.76A4.7,4.7,0,0,0,297,104l18.63,2.06,33.17,3.68h0l1.06.12,5.35-4.18a3.85,3.85,0,0,0,0-1,4.71,4.71,0,0,0-4.15-4.18l-4.61-.51-18.28-2L315,96.54l-17-1.88a4.71,4.71,0,0,0-4.54,7.1Z"/><path id="Trazado_255" data-name="Trazado 255" class="cls-2" d="M319.64,47.91,329.39,49l4.3.48,6.5.72a4.7,4.7,0,0,0,1-9.34l-20.54-2.27a4.7,4.7,0,1,0-1.38,9.29l.34,0Z"/><path id="Trazado_256" data-name="Trazado 256" class="cls-8" d="M240,73.92,251.87,123l19.82,3.77L290,130.24,309.7,134l6.28,1.2a2.65,2.65,0,0,0,2.11-.51l5.05-3.94,3.19-2.49L349,110.54,334.58,51a3.15,3.15,0,0,0-.89-1.55,3.22,3.22,0,0,0-3-.8l-88.38,21.4A3.19,3.19,0,0,0,240,73.92Z"/><path id="Trazado_257" data-name="Trazado 257" class="cls-2" d="M267.22,113a4.71,4.71,0,0,0,5.67,3.46l51.86-12.56a4.7,4.7,0,0,0,3.46-5.67,1.21,1.21,0,0,0,0-.18,4.7,4.7,0,0,0-5.62-3.28l-51.86,12.56A4.71,4.71,0,0,0,267.22,113Z"/><path id="Trazado_258" data-name="Trazado 258" class="cls-2" d="M271.69,126.74l18.33,3.5,38.84-9.4a4.7,4.7,0,0,0-2.21-9.13L274.8,124.26a4.65,4.65,0,0,0-2.7,1.8,5.11,5.11,0,0,0-.41.68Z"/><path id="Trazado_259" data-name="Trazado 259" class="cls-2" d="M309.7,134l6.28,1.2a2.65,2.65,0,0,0,2.11-.51l5.05-3.94Z"/><path id="Trazado_260" data-name="Trazado 260" class="cls-2" d="M277.67,86.64a4.7,4.7,0,0,0,5.67,3.46l20.09-4.86a4.7,4.7,0,0,0,3.46-5.67,4.79,4.79,0,0,0-.86-1.79,4.7,4.7,0,0,0-4.8-1.67L281.14,81A4.71,4.71,0,0,0,277.67,86.64Z"/><path id="Trazado_261" data-name="Trazado 261" class="cls-2" d="M290,130.24,309.7,134l6.29,1.2a2.66,2.66,0,0,0,2.11-.51l5-3.94-1.77.43-3.74,2.91a1.88,1.88,0,0,1-1.5.37l-4.66-.89-19.67-3.74Zm58.77-20.5.2.79.87-.68ZM290,130.24,309.7,134l6.29,1.2a2.66,2.66,0,0,0,2.11-.51l5-3.94-1.77.43-3.74,2.91a1.88,1.88,0,0,1-1.5.37l-4.66-.89-19.67-3.74Zm0,0L309.7,134l6.29,1.2a2.66,2.66,0,0,0,2.11-.51l5-3.94-1.77.43-3.74,2.91a1.88,1.88,0,0,1-1.5.37l-4.66-.89-19.67-3.74Zm-64.1-9.19,22.2,91.71a2.64,2.64,0,0,0,3.18,1.94L412,175.8a2.63,2.63,0,0,0,1.94-3.17l-22.2-91.72a2.61,2.61,0,0,0-1.7-1.86,2.36,2.36,0,0,0-.95-.14,2.55,2.55,0,0,0-1.09.28,3.23,3.23,0,0,0-.44.27l-13.19,10.3-19.15,15-6.41,5h0l-23.53,18.37-3.89,3-3.74,2.92a1.87,1.87,0,0,1-1.5.36l-4.66-.88-19.67-3.74-19.7-3.75L229,117.85a2.6,2.6,0,0,0-1.11,0,2.71,2.71,0,0,0-1.29.74,3.19,3.19,0,0,0-.35.47,2.64,2.64,0,0,0-.3,2Zm64.1,9.19L309.7,134l6.29,1.2a2.66,2.66,0,0,0,2.11-.51l5-3.94-1.77.43-3.74,2.91a1.88,1.88,0,0,1-1.5.37l-4.66-.89-19.67-3.74Zm0,0L309.7,134l6.29,1.2a2.66,2.66,0,0,0,2.11-.51l5-3.94-1.77.43-3.74,2.91a1.88,1.88,0,0,1-1.5.37l-4.66-.89-19.67-3.74Zm0,0L309.7,134l6.29,1.2a2.66,2.66,0,0,0,2.11-.51l5-3.94-1.77.43-3.74,2.91a1.88,1.88,0,0,1-1.5.37l-4.66-.89-19.67-3.74Z"/><path id="Trazado_262" data-name="Trazado 262" class="cls-5" d="M290,130.24,309.7,134l6.29,1.2a2.66,2.66,0,0,0,2.11-.51l5-3.94-1.77.43-3.74,2.91a1.88,1.88,0,0,1-1.5.37l-4.66-.89-19.67-3.74Zm58.77-20.5.2.79.87-.68ZM290,130.24,309.7,134l6.29,1.2a2.66,2.66,0,0,0,2.11-.51l5-3.94-1.77.43-3.74,2.91a1.88,1.88,0,0,1-1.5.37l-4.66-.89-19.67-3.74Zm0,0L309.7,134l6.29,1.2a2.66,2.66,0,0,0,2.11-.51l5-3.94-1.77.43-3.74,2.91a1.88,1.88,0,0,1-1.5.37l-4.66-.89-19.67-3.74ZM227,119.15l.1.07.07-.08a1.88,1.88,0,0,1,1.71-.55l42.86,8.15,18.34,3.5L309.7,134l6.29,1.2a2.66,2.66,0,0,0,2.11-.51l5-3.94-1.77.43-3.74,2.91a1.88,1.88,0,0,1-1.5.37l-4.66-.89-19.67-3.74-19.7-3.75L229,117.85a2.6,2.6,0,0,0-1.11,0Zm-1,1.9,22.2,91.72a2.63,2.63,0,0,0,3.18,1.93L412,175.8a2.62,2.62,0,0,0,1.93-3.17l-22.2-91.71a2.61,2.61,0,0,0-2.65-2,2.51,2.51,0,0,0-1.08.28,3.23,3.23,0,0,0-.44.27l-13.19,10.3-19.15,15-6.42,5h0l-23.53,18.37-3.89,3-3.74,2.92a1.91,1.91,0,0,1-1.51.37l-4.65-.89-19.67-3.74-19.7-3.75L229,117.85a2.6,2.6,0,0,0-1.11,0,2.71,2.71,0,0,0-1.29.74,3.19,3.19,0,0,0-.35.47,2.64,2.64,0,0,0-.3,2Zm.73-.17a1.9,1.9,0,0,1,.33-1.58.27.27,0,0,1,.07-.08l.07-.08a1.88,1.88,0,0,1,1.71-.55l42.86,8.15,18.33,3.5L309.7,134l6.29,1.2a2.66,2.66,0,0,0,2.11-.51l5-3.94,3.19-2.49L349,110.54l.87-.68,5.34-4.18,19-14.87L388,80.06a1.89,1.89,0,0,1,.71-.35l.22,0,.19,0a2.05,2.05,0,0,1,.65.1A1.88,1.88,0,0,1,391,81.09l22.2,91.72a1.87,1.87,0,0,1-1.38,2.27h0L251.12,214a1.87,1.87,0,0,1-2.26-1.39ZM290,130.24,309.7,134l6.29,1.2a2.66,2.66,0,0,0,2.11-.51l5-3.94-1.77.43-3.74,2.91a1.88,1.88,0,0,1-1.5.37l-4.66-.89-19.67-3.74Zm0,0L309.7,134l6.29,1.2a2.66,2.66,0,0,0,2.11-.51l5-3.94-1.77.43-3.74,2.91a1.88,1.88,0,0,1-1.5.37l-4.66-.89-19.67-3.74Zm0,0L309.7,134l6.29,1.2a2.66,2.66,0,0,0,2.11-.51l5-3.94-1.77.43-3.74,2.91a1.88,1.88,0,0,1-1.5.37l-4.66-.89-19.67-3.74Z"/><path id="Trazado_263" data-name="Trazado 263" class="cls-8" d="M370.11,157.79a5.83,5.83,0,0,1,4.29-7l20.28-4.91a5.83,5.83,0,1,1,2.75,11.33h0l-20.28,4.91A5.84,5.84,0,0,1,370.11,157.79Z"/><circle id="Elipse_6" data-name="Elipse 6" class="cls-2" cx="145.98" cy="135.73" r="5.03"/></g></g></g></svg>