<svg xmlns="http://www.w3.org/2000/svg" viewBox="0 0 30 30"><title>icono_estadistico</title><g id="Capa_2" data-name="Capa 2"><g id="Capa_1-2" data-name="Capa 1"><path d="M4,22a4,4,0,1,0,4,4A4,4,0,0,0,4,22Zm0,6a2,2,0,1,1,2-2A2,2,0,0,1,4,28Z"/><path d="M8.7,8a4,4,0,1,0,4,4A4,4,0,0,0,8.7,8Zm0,6a2,2,0,1,1,2-2A2,2,0,0,1,8.7,14Z"/><path d="M21.74,16a4,4,0,1,0,4,4A4,4,0,0,0,21.74,16Zm0,6a2,2,0,1,1,2-2A2,2,0,0,1,21.74,22Z"/><path d="M26,0a4,4,0,1,0,4,4A4,4,0,0,0,26,0Zm0,6a2,2,0,1,1,2-2A2,2,0,0,1,26,6Z"/><rect x="1.53" y="17.97" width="9.41" height="2.61" transform="translate(-14.02 18.8) rotate(-70.74)"/><rect x="14.15" y="10.95" width="2.61" height="10.19" transform="translate(-6.44 20.14) rotate(-56.66)"/><rect x="18.32" y="10.74" width="11.36" height="2.61" transform="translate(5.99 31.96) rotate(-74.53)"/></g></g></svg>