<svg xmlns="http://www.w3.org/2000/svg" viewBox="0 0 20 30"><title>icono_quejas</title><g id="Capa_2" data-name="Capa 2"><g id="Capa_1-2" data-name="Capa 1"><path d="M10,0A9.8,9.8,0,0,0,0,9.6V29.11A.91.91,0,0,0,.93,30a.91.91,0,0,0,.93-.89V25.5H18.14v3.61a.93.93,0,0,0,1.86,0V9.6A9.8,9.8,0,0,0,10,0Zm8.14,23.72H1.86V9.6A8,8,0,0,1,10,1.78,8,8,0,0,1,18.14,9.6Z"/><path d="M14.31,10.89H5.69a1.52,1.52,0,0,1-1.5-1.53V7.11a1.52,1.52,0,0,1,1.5-1.53h8.62a1.52,1.52,0,0,1,1.5,1.53V9.36A1.52,1.52,0,0,1,14.31,10.89Zm-8.12-2h7.62V7.62H6.19Z"/><path d="M13.85,13.2H6.15a2,2,0,0,0-2,2v4.91a2,2,0,0,0,2,2h7.7a2,2,0,0,0,2-2V15.21A2,2,0,0,0,13.85,13.2Zm-1.11,1.74L10,17.2,7.24,14.94Zm1.36,5.18a.25.25,0,0,1-.25.26H6.15a.25.25,0,0,1-.25-.26V16.07L9.41,19a.86.86,0,0,0,.54.2.93.93,0,0,0,.54-.19l3.61-2.93Z"/></g></g></svg>